<?xml version="1.0" encoding="utf-8" ?>
<svg xmlns="http://www.w3.org/2000/svg" xmlns:xlink="http://www.w3.org/1999/xlink" width="911" height="418">
	<path fill="#1B7880" transform="scale(1.69331 1.48754)" d="M289.894 238.169C293.301 238.898 294.261 237.439 295.231 237.663C295.328 238.011 295.443 238.131 295.251 238.449C294.708 239.347 292.947 239.866 291.968 240.056Q291.691 240.11 291.411 240.149C290.515 239.796 289.507 239.503 288.672 239.031C289.057 238.582 289.337 238.372 289.894 238.169Z"/>
	<path fill="#1B7880" transform="scale(1.69331 1.48754)" d="M246.299 231.427C246.525 232.009 246.699 232.59 247.126 233.058C246.833 233.865 246.555 234.682 246.241 235.481C247.439 235.545 248.646 235.562 249.809 235.882L250.16 236.985C248.682 236.836 247.112 237.012 245.628 237.077C245.166 238.044 244.726 238.824 243.996 239.613L243.631 239.537C243.156 237.276 245.321 233.438 246.299 231.427Z"/>
	<path fill="#116372" transform="scale(1.69331 1.48754)" d="M288.672 239.031C288.137 238.532 287.557 237.96 287.162 237.343C286.298 235.994 286.084 234.244 286.46 232.698C286.83 231.182 287.805 229.764 289.173 228.989C290.434 228.274 292.098 228.11 293.486 228.527C294.314 228.775 295.308 229.488 295.708 230.267L295.623 230.433C294.472 230.732 293.257 230.051 292.099 229.924C291.031 229.806 289.669 230.061 288.849 230.797C288.177 231.401 287.931 232.281 287.899 233.153C287.822 235.278 288.473 236.648 289.894 238.169C289.337 238.372 289.057 238.582 288.672 239.031Z"/>
	<path fill="#116372" transform="scale(1.69331 1.48754)" d="M248.343 227.949C250.863 231.932 252.681 236.108 253.688 240.731C252.784 239.778 251.243 237.478 250.16 236.985L249.809 235.882C248.646 235.562 247.439 235.545 246.241 235.481C246.555 234.682 246.833 233.865 247.126 233.058C246.699 232.59 246.525 232.009 246.299 231.427L248.343 227.949ZM247.126 233.058C246.833 233.865 246.555 234.682 246.241 235.481C247.439 235.545 248.646 235.562 249.809 235.882C250.034 235.417 249.912 234.919 249.815 234.434C249.587 233.294 249.474 231.96 248.458 231.279C247.639 231.582 247.513 232.296 247.126 233.058Z"/>
	<path fill="#116372" transform="scale(1.69331 1.48754)" d="M266.115 228.625C268.097 228.159 270.638 228.18 272.431 229.331C273.138 229.785 273.217 230.095 273.381 230.864C273.164 231.945 272.134 232.902 272.235 233.905C273.177 234.948 273.947 235.639 273.805 237.148C273.735 237.889 273.378 238.468 272.792 238.914C271.081 240.214 268.145 239.957 266.128 239.81L265.969 236.335C265.996 235.177 265.949 234.01 265.933 232.851C265.938 231.446 266.048 230.03 266.115 228.625ZM267.888 234.404C267.765 234.713 267.643 234.975 267.611 235.309C267.692 236.245 267.526 237.158 267.727 238.091C267.84 238.152 267.883 238.178 268.012 238.23C268.894 238.586 270.184 238.301 271.028 237.936C271.762 237.619 272.025 237.261 272.315 236.543C272.254 236.184 272.148 235.948 271.905 235.67C270.866 234.482 269.338 234.533 267.888 234.404ZM268.472 229.46C267.635 230.431 267.579 231.409 267.473 232.64L267.772 232.964C268.277 232.978 268.781 233.001 269.286 232.989C270.252 232.966 270.907 232.671 271.577 231.956C271.675 231.381 271.728 231.256 271.404 230.732C270.833 229.809 269.458 229.679 268.472 229.46Z"/>
	<path fill="#010246" transform="scale(1.69331 1.48754)" d="M191.223 199.793L206.24 199.802C206.266 201.907 206.183 203.988 206.058 206.089C202.863 206.589 194.999 206.169 191.275 206.172C191.153 204.038 191.168 201.93 191.223 199.793Z"/>
	<path fill="#010246" transform="scale(1.69331 1.48754)" d="M292.841 199.72C295.994 199.44 302.636 199.176 305.564 199.963C306.043 200.351 306.232 200.796 306.347 201.39C306.585 202.618 306.459 204.6 305.63 205.616C305.131 206.227 304.325 206.121 303.611 206.178C299.255 206.376 294.861 206.25 290.504 206.148C291.659 204.333 290.945 202.452 291.22 200.445C291.698 199.786 292.069 199.862 292.841 199.72Z"/>
	<path fill="#010246" transform="scale(1.69331 1.48754)" d="M284.35 190.525C285.543 190.453 287.123 190.482 288.18 191.078C288.738 192.155 288.199 193.813 287.87 194.952C287.645 195.73 287.095 197.658 286.404 198.09C285.93 198.387 283.709 198.397 283.026 198.5C281.701 198.7 280.609 199.339 279.457 199.981C279.307 205.777 279.44 211.619 279.442 217.419C277.528 217.503 273.894 218.067 272.278 217.007C271.532 216.517 271.595 215.939 271.484 215.147C271.44 209.195 273.023 199.52 269.378 194.524C269.823 193.599 270.377 192.041 271.202 191.423C271.914 190.889 272.86 190.661 273.726 190.874C275.502 191.312 277.502 193.608 278.438 195.108C280.211 192.726 281.352 191.289 284.35 190.525Z"/>
	<path fill="#010246" transform="scale(1.69331 1.48754)" d="M435.252 178.448C437.017 178.313 439.139 178.193 440.789 178.939C441.441 179.234 441.94 179.64 442.169 180.337C442.9 182.562 443.404 208.929 442.477 210.679C443.082 210.729 443.697 210.778 444.294 210.891C445.53 211.124 446.598 211.838 447.264 212.922C447.616 213.496 447.775 214.253 447.607 214.906C447.418 215.638 447.119 216.396 446.454 216.793C445.549 217.351 444.361 217.461 443.321 217.487C441.143 217.542 438.338 217.188 436.713 215.573C435.802 214.668 435.629 213.171 435.479 211.956C434.957 207.706 435.233 203.214 435.248 198.932L435.252 178.448Z"/>
	<path fill="#010246" transform="scale(1.69331 1.48754)" d="M420.308 178.448C421.702 178.266 424.17 178.325 425.4 179.024C425.926 179.322 426.133 179.557 426.289 180.151C426.981 182.792 427.368 209.397 426.573 210.757C427.465 210.816 428.619 210.797 429.446 211.133C430.378 211.512 431.268 212.536 431.565 213.495C431.842 214.388 431.64 215.375 431.157 216.161C430.685 216.93 430.081 216.993 429.288 217.199C429.218 217.226 429.149 217.255 429.079 217.28C427.189 217.952 423.693 217.365 421.949 216.431C420.78 215.805 420.227 214.982 419.845 213.73C419.221 211.68 419.151 209.353 419.069 207.227C418.945 203.982 419.043 179.276 419.42 178.569L420.308 178.448Z"/>
	<path fill="#010246" transform="scale(1.69331 1.48754)" d="M375.641 190.266C376.616 190.198 377.6 190.197 378.578 190.202C381.096 190.216 385.664 190.392 387.438 192.382C387.812 192.802 388.057 193.342 388.016 193.911C387.912 195.345 386.397 197.144 385.32 198.016Q385.002 197.578 384.546 197.286C382.816 196.194 379.459 195.928 377.502 196.368C376.797 196.526 376.613 196.633 376.244 197.215C376.755 199.926 383.471 201.691 385.758 203.461C387.211 204.585 388.528 206.106 388.724 208.001C388.957 210.252 387.74 212.976 386.313 214.66C384.357 216.967 381.722 217.408 378.87 217.607C374.627 217.969 370.464 216.425 366.523 215.066C366.865 214.799 367.153 214.509 367.389 214.143C368.124 213.006 369.093 211.091 368.813 209.706C371.532 210.38 374.362 211.886 377.192 211.858C378.291 211.847 379.167 211.519 379.936 210.728C380.512 207.817 370.418 206.301 368.605 200.873C367.959 198.94 368.245 196.727 369.172 194.932C370.499 192.363 373.001 191.085 375.641 190.266Z"/>
	<path fill="#010246" transform="scale(1.69331 1.48754)" d="M400.247 190.266C403.147 190.127 405.936 190.171 408.569 191.591C411.088 192.949 412.871 195.31 413.63 198.055C414.297 200.467 414.239 204.222 412.952 206.47C409.74 207.2 402.132 206.697 398.54 206.609C399.53 207.385 399.911 208.639 400.563 209.679C403.22 213.912 407.562 209.684 411.198 210.554C411.721 211.031 411.683 211.034 411.722 211.747C412.219 212.156 412.499 212.664 412.742 213.25C412.899 213.626 413.079 214.442 412.912 214.817C412.468 215.817 411.058 216.274 410.103 216.61C406.297 217.949 401.084 218.447 397.405 216.594C394.732 215.248 392.886 212.683 391.995 209.871C390.64 205.596 390.95 199.95 393.039 195.964C394.647 192.897 397.03 191.267 400.247 190.266ZM401.375 196.043C400.142 197.547 399.726 199.729 398.364 200.995L403.828 201.04C404.758 201.054 405.527 201.142 406.299 200.543C406.639 200.016 406.898 199.713 406.786 199.047C406.615 198.022 405.578 197.07 404.729 196.56C403.58 195.867 402.687 195.922 401.375 196.043Z"/>
	<path fill="#010246" transform="scale(1.69331 1.48754)" d="M350.497 190.266C353.898 189.944 357.363 190.244 360.219 192.31C362.544 193.993 363.895 196.507 364.312 199.319C364.624 201.416 364.866 204.817 363.561 206.55C358.901 207.091 353.795 206.661 349.089 206.58C350.206 207.505 350.324 208.995 351.112 210.144C353.38 213.447 358.373 209.923 361.563 210.527C362.148 210.988 362.128 211.065 362.299 211.801C362.539 212 362.785 212.21 362.975 212.46C363.417 213.043 363.632 213.62 363.516 214.354C363.021 215.339 362.296 215.802 361.317 216.258C357.791 217.9 352.221 218.44 348.563 217.038C345.988 216.05 344.156 214.006 343.068 211.513C341.227 207.294 341.147 201.648 342.829 197.365C344.375 193.427 346.794 191.867 350.497 190.266ZM351.856 196.043C350.256 197.381 350.283 199.742 348.801 200.975L354.048 200.979C354.901 201.005 356.114 201.199 356.928 201.026C356.83 199.53 356.819 197.894 355.586 196.833C354.577 195.964 353.11 195.94 351.856 196.043Z"/>
	<path fill="#010246" transform="scale(1.69331 1.48754)" d="M253.238 190.5C255.084 190.41 257.108 190.368 258.908 190.842C268.068 193.251 262.286 207.078 266.112 213.573C265.31 215.061 264.462 216.301 263.392 217.608C261.282 216.783 259.504 215.947 257.797 214.398C256.423 215.792 254.596 216.884 252.702 217.385C249.954 218.112 247.624 217.45 245.215 216.086C243.677 214.701 242.508 212.922 242.308 210.824C242.092 208.554 242.837 205.706 244.307 203.937C246.854 200.874 251.289 201.388 254.836 201.033C255.59 200.958 256.217 200.769 256.713 200.161C256.748 199.904 256.772 199.632 256.716 199.376C256.525 198.515 255.54 197.29 254.777 196.867C252.364 195.53 247.576 197.517 245.012 198.233C244.38 196.38 243.883 194.557 243.518 192.635C246.703 191.597 249.92 190.943 253.238 190.5ZM252.289 205.953C251.3 206.529 250.651 207.129 250.33 208.261C250.119 209.004 250.188 209.786 250.563 210.466C250.95 211.167 251.665 211.659 252.435 211.853C252.891 211.968 253.417 211.943 253.884 211.919C254.699 211.475 255.502 211 256.386 210.705L256.501 205.964C255.11 205.952 253.675 205.864 252.289 205.953Z"/>
	<path fill="#010246" transform="scale(1.69331 1.48754)" d="M223.144 180.504C223.921 180.375 224.714 180.355 225.5 180.365C229.53 180.416 233.858 181.832 236.698 184.771C238.31 186.439 239.709 188.951 239.633 191.335C239.595 192.503 239.136 193.537 238.255 194.313C236.396 195.948 233.899 195.759 231.611 195.641C231.547 194.535 231.451 193.428 231.242 192.339C230.924 190.681 230.246 188.861 228.781 187.887C226.871 186.618 224.594 187.082 222.506 187.524C221.785 188.469 221.125 189.505 220.659 190.599C218.842 194.86 218.508 201.422 220.257 205.725C221.012 207.582 222.311 209.272 224.203 210.059C226.635 211.071 229.304 210.378 231.621 209.398C233.015 208.661 234.354 207.761 235.696 206.933C237.335 208.625 238.452 210.324 239.452 212.45C236.856 214.229 234.245 215.832 231.216 216.766C227.195 218.006 222.145 218.281 218.356 216.234C214.768 214.295 212.651 210.581 211.56 206.772C209.84 200.768 210.155 193.307 213.233 187.775C215.459 183.773 218.857 181.722 223.144 180.504Z"/>
	<path fill="#010246" transform="scale(1.69331 1.48754)" d="M172.589 180.263Q172.775 180.259 172.96 180.263C177.272 180.341 181.885 181.787 184.887 185.013C186.428 186.67 187.764 189.184 187.635 191.508C187.573 192.629 187.092 193.607 186.237 194.334C184.33 195.955 181.901 195.764 179.586 195.616C179.488 193.708 179.454 191.53 178.534 189.811C177.537 187.95 175.95 187.383 174.049 186.819C173.176 186.993 172.178 187.18 171.38 187.577C169.769 188.377 168.611 190.366 168.042 191.999C166.667 195.945 166.633 202.384 168.512 206.154C169.424 207.983 170.879 209.535 172.856 210.185C175.534 211.066 178.148 210.122 180.526 208.884L183.713 206.919C185.331 208.636 186.529 210.283 187.504 212.438C184.107 214.927 180.349 216.914 176.146 217.565C172.325 218.157 168.308 217.844 165.112 215.465C161.459 212.746 159.658 208.261 159.004 203.884C158.113 197.929 158.662 190.939 162.393 185.969C164.87 182.669 168.557 180.806 172.589 180.263Z"/>
	<path fill="#010246" transform="scale(1.69331 1.48754)" d="M107.403 180.778C109.061 180.728 110.633 181.047 112.256 181.342C115.79 193.206 120.62 204.795 123.341 216.891Q122.969 217.002 122.593 217.094C120.611 217.588 118.372 218.079 116.514 216.917C114.128 215.425 113.569 211.921 112.97 209.393C111.3 209.507 109.609 209.449 107.936 209.442C105.605 209.365 103.271 209.338 100.939 209.288Q99.9406 213.329 98.7428 217.315C96.1613 217.507 93.7022 217.312 91.137 217.012C92.1629 212.527 93.8937 208.107 95.3488 203.744Q99.0819 192.547 102.701 181.313C104.269 181.176 105.839 180.958 107.403 180.778ZM106.867 188.922C105.934 193.31 104.746 199.044 102.854 203.08L106.589 203.06L111.079 203.023C110.232 200.488 108.35 190.218 106.867 188.922Z"/>
	<path fill="#010246" transform="scale(1.69331 1.48754)" d="M315.802 180.811C320.553 180.68 325.848 180.128 330.444 181.588C333.352 182.512 335.819 184.118 337.223 186.912Q337.469 187.41 337.664 187.931Q337.859 188.451 338.001 188.988Q338.143 189.526 338.231 190.074Q338.319 190.623 338.352 191.178Q338.385 191.733 338.362 192.288Q338.339 192.843 338.261 193.394Q338.183 193.944 338.05 194.483Q337.918 195.023 337.732 195.547C336.647 198.598 334.637 200.516 331.782 201.888C331.818 201.913 331.854 201.938 331.89 201.963C335.48 204.554 337.396 209.604 338.96 213.657C339.336 214.633 339.571 215.315 339.125 216.329C338.583 216.988 338.009 217.234 337.185 217.353C334.459 217.747 332.478 217.079 330.327 215.478C330.341 215.392 330.371 215.246 330.369 215.15C330.334 213.306 327.535 206.384 326.194 204.945C325.032 203.696 321.696 204.001 320.132 203.977C320.154 204.012 320.178 204.046 320.199 204.081C320.234 204.14 320.264 204.201 320.298 204.26C320.457 204.536 320.601 204.8 320.66 205.116C321.104 207.476 321.282 215.53 320.003 217.394C317.351 217.529 314.687 217.409 312.034 217.339C312.228 217.05 312.392 216.74 312.463 216.397C313.112 213.254 312.747 207.13 312.756 203.65C312.774 196.664 313.207 189.252 312.54 182.306C312.491 181.799 312.382 181.438 312.096 181.011C313.339 181.011 314.565 180.913 315.802 180.811ZM320.387 187.376C321.296 189.114 321.155 194.713 320.631 196.603C320.566 196.838 320.435 197.049 320.312 197.257C320.279 197.314 320.248 197.373 320.214 197.43C320.193 197.464 320.17 197.497 320.147 197.53C322.186 197.548 326.395 198.018 327.892 196.519C328.004 196.407 328.088 196.297 328.169 196.162C329.088 195.739 329.428 194.878 329.752 193.971C330.161 192.829 330.113 191.611 329.586 190.517C328.883 189.059 327.661 188.037 326.135 187.523C324.265 186.893 322.307 187.192 320.387 187.376Z"/>
	<path fill="#010246" transform="scale(1.69331 1.48754)" d="M134.024 180.791C137.088 180.677 140.261 180.564 143.304 180.974C146.296 181.377 149.498 182.407 151.364 184.937C152.698 186.747 153.239 189.304 152.902 191.516C152.486 194.24 150.6 195.903 148.516 197.469C149.809 198.246 151.136 199.149 152.114 200.306C153.97 202.5 154.965 205.212 154.7 208.099C154.439 210.935 152.972 213.204 150.817 214.986C144.712 218.786 135.192 217.57 128.298 217.22L128.441 181.22C130.297 181.037 132.164 180.928 134.024 180.791ZM136.48 201.049C136.498 204.589 136.567 208.137 136.429 211.675C139.448 211.546 142.42 211.646 145.179 210.22C145.967 208.832 146.953 206.864 146.53 205.216C146.211 203.97 145.272 203.086 144.173 202.484C141.718 201.137 139.139 201.358 136.48 201.049ZM136.518 186.517C136.519 189.437 136.699 192.477 136.436 195.381C138.85 195.271 141.379 195.265 143.702 194.518C144.455 192.995 145.42 191.237 144.847 189.495C144.547 188.583 143.787 187.943 142.937 187.553C140.962 186.646 138.653 186.644 136.518 186.517Z"/>
	<path fill="#116372" transform="scale(1.69331 1.48754)" d="M255.967 48.2081C260.686 47.9019 265.466 48.0289 270.197 48.0154C275.74 47.9995 281.485 47.7484 286.983 48.497Q288.734 48.7296 290.438 49.1931Q292.142 49.6567 293.769 50.3431C296.159 51.3722 298.976 53.0426 299.939 55.5847C300.927 58.1966 300.952 70.776 299.819 73.3106C303.557 72.5091 314.732 67.4595 317.752 68.7574C318.085 68.9004 318.308 69.409 318.412 69.7314C318.926 71.3148 319.04 75.0216 318.228 76.4548C321.452 76.4533 327.806 75.5115 330.444 77.3607C330.842 78.354 330.924 79.4304 330.979 80.4898C331.3 86.6423 331.024 92.9173 331.014 99.087C331.005 105.425 331.238 111.779 331.166 118.112C331.139 120.392 330.645 122.891 330.798 125.117C331.872 126.131 333.725 125.809 334.9 126.807C335.033 127.463 334.945 127.465 334.613 128.011C331.264 129.926 322.821 129.028 318.829 128.887C319.075 129.24 319.254 129.554 319.352 129.977C319.931 132.461 319.652 152.492 318.752 153.995C318.66 154.109 318.661 154.121 318.52 154.219C316.127 155.868 298.963 159.053 295.476 159.043C292.431 159.033 289.465 158.393 286.571 157.487C286.596 157.398 286.623 157.309 286.644 157.219C286.866 156.291 286.495 154.128 286.017 153.297C284.737 153.812 283.278 153.989 281.925 154.248C279.292 155.396 275.388 155.988 272.544 156.294C269.973 156.571 264.56 156.103 262.504 154.479C261.121 152.423 261.53 132.832 261.925 128.975C258.547 129.022 254.942 128.782 251.626 129.484C247.212 130.418 242.561 132.995 238.054 133.013C237.514 133.016 236.756 132.936 236.379 132.528C235.615 131.704 235.826 130.071 235.844 129.01C231.021 128.927 206.781 129.722 204.8 128.373C204.63 128.043 204.412 127.679 204.418 127.299C204.426 126.872 204.534 126.66 204.843 126.366C205.956 125.313 208.603 125.558 210.042 125.632C209.532 117.928 209.98 109.93 209.954 102.194C209.93 95.1505 209.395 87.8883 209.897 80.87C209.956 80.0397 210.088 77.4854 210.694 77.0131C212.512 75.5972 219.773 76.2577 222.121 76.4435C222.097 73.793 222.127 71.1111 222.624 68.5013C228.485 68.9311 234.304 71.133 239.83 73.0202C239.559 67.6355 238.337 57.5241 242.035 53.3681C245.216 49.7946 251.371 48.4357 255.967 48.2081ZM266.327 49.7748C259.176 50.5105 249.361 50.6979 243.82 55.9312C241.99 61.4588 242.721 67.9419 242.981 73.6919C253.053 70.5905 263.154 69.3491 273.675 69.5199C278.484 69.7688 292.995 70.9647 296.531 73.5354C297.946 71.4055 297.631 60.8695 297.107 58.0383C297.018 57.5568 296.877 57.1693 296.588 56.7729C296.458 55.9041 295.624 55.2035 294.95 54.71C288.625 50.083 274.092 49.4187 266.327 49.7748ZM225.568 72.1152C226.115 81.9508 225.583 92.0512 225.543 101.913C225.512 109.551 225.99 118.287 225.473 125.748C228.811 125.726 232.481 125.994 235.775 125.568C235.989 124.575 235.892 123.52 235.859 122.511C235.813 119.584 235.126 104.478 236.445 103.105C237.309 102.205 238.732 101.96 239.895 101.641C239.509 93.2226 240.098 84.7651 239.606 76.3484C234.983 75.6213 230.039 73.5793 225.568 72.1152ZM313.927 122.245C313.909 122.285 313.889 122.325 313.872 122.366C313.224 123.908 313.771 125.227 312.491 126.718L311.941 126.889C311.105 126.439 310.764 125.428 310.508 124.571C310.302 123.878 310.19 123.059 309.742 122.487C307.636 122.979 305.404 123.095 303.253 123.31C303.548 124.674 303.625 125.675 302.867 126.914C302.691 127.201 302.451 127.413 302.179 127.605C301.539 127.536 301.328 127.452 300.908 126.931C300.157 126.001 299.729 124.222 298.756 123.569C296.094 126.292 299.358 144.972 297.177 149.566C297.702 150.728 297.969 153.503 297.503 154.692C297.433 154.871 297.354 155.025 297.252 155.187C303.399 154.166 309.48 152.78 315.619 151.708C316.809 149.106 316.226 126.163 315.622 122.349C314.963 121.977 314.652 122.131 313.927 122.245ZM313.754 72.6113C310.006 74.6462 304.242 76.1491 300.032 76.5554C300.966 78.3062 301.086 98.3863 300.358 100.949C300.288 101.193 300.204 101.42 300.07 101.637C301.755 101.886 303.393 102.008 304.49 103.495C305.467 104.822 305.219 106.66 304.935 108.192C304.857 108.613 304.735 109.013 304.581 109.411C305.923 109.331 307.328 109.128 308.61 109.617L308.99 110.003L309.198 110.086C310.686 110.692 311.688 111.871 312.296 113.34C312.955 114.931 313.058 117.534 314.087 118.809L314.57 118.86C315.108 118.119 315.136 117.05 315.191 116.162C315.418 112.504 315.294 108.783 315.3 105.117L315.344 87.1246C315.346 83.2305 315.902 76.8419 315.262 73.2031C315.222 72.9711 315.157 72.7901 315.074 72.5708C314.612 72.5421 314.209 72.5271 313.754 72.6113ZM267.17 100.465C262.687 100.727 258.239 101.42 253.764 101.678C254.074 105.743 253.915 109.923 253.933 114.002C253.95 117.893 254.144 121.881 253.939 125.762C256.557 125.727 259.321 125.502 261.923 125.742C261.811 123.249 261.812 120.766 262.041 118.279C263.581 118.146 265.146 117.944 266.691 117.927C267.195 114.882 267.519 110.831 270.272 108.913C271.846 107.817 273.886 107.766 275.706 108.128C276.112 108.209 276.511 108.321 276.908 108.44C278.928 107.325 281.279 105.915 283.676 106.622C284.573 106.887 285.193 107.433 285.827 108.094C286.248 106.314 286.782 103.516 285.849 101.817C279.671 100.936 273.423 100.068 267.17 100.465ZM213.316 79.7358L213.273 125.652C216.226 125.554 219.362 125.508 222.303 125.783C222.13 110.449 222.448 95.1086 222.209 79.775C219.257 79.8194 216.265 79.867 213.316 79.7358ZM318.321 79.9654C319.449 83.4496 318.644 107.231 318.705 112.442C318.752 116.435 319.923 121.944 319.007 125.724C320.814 125.695 325.73 126.057 327.126 125.401C327.442 124.844 327.523 124.369 327.569 123.74C328.219 114.823 327.741 105.572 327.722 96.6229C327.713 92.7052 328.262 83.7974 327.389 80.4708C327.318 80.2032 327.216 80.0076 327.061 79.7819C324.216 79.7326 321.129 79.4963 318.321 79.9654ZM282.074 120.128C280.888 120.389 279.719 120.623 278.511 120.768C278.589 122.111 278.748 123.673 277.899 124.819C277.671 124.867 277.491 124.982 277.287 124.847C275.865 123.904 275.409 121.775 274.047 120.863L273.547 121.06L274.093 120.889C273.909 121.118 273.477 121.537 273.369 121.791C273.072 122.486 273.207 124.179 273.172 124.991C272.903 131.245 272.968 137.501 273.011 143.758C273.031 146.642 273.309 149.739 273.021 152.596C277.367 151.803 281.828 151.057 286.088 149.886C287.224 147.795 286.78 124.621 285.834 121.132C285.726 120.737 285.543 120.349 285.291 120.026C284.223 120.046 283.138 120.03 282.074 120.128ZM250.337 102.506C246.722 103.458 242.96 104.703 239.266 105.227C239.27 108.053 239.039 128.162 239.662 128.961C243.366 128.008 247.134 126.879 250.897 126.197C250.568 122.306 251.388 104.109 250.337 102.506ZM289.536 124.082C290.311 127.212 290.498 152.945 289.433 154.865C290.358 154.946 293.399 155.503 294 155.083C294.845 153.614 294.814 127.186 294.084 124.683C294.011 124.431 293.873 124.191 293.732 123.971C292.36 123.994 290.893 123.911 289.536 124.082ZM265.326 121.561L265.366 141.048C265.368 144.746 265.542 148.546 265.312 152.233L269.993 152.65C269.57 147.706 269.813 142.587 269.799 137.623C269.784 132.29 269.548 126.854 269.79 121.53C268.299 121.587 266.817 121.66 265.326 121.561ZM289.231 102.543C289.251 102.601 289.274 102.659 289.292 102.718C290.096 105.235 288.473 114.677 290.383 116.003C292.7 115.117 293.734 112.277 295.924 111.11C296.163 110.982 296.397 110.851 296.643 110.736C298.15 110.557 299.691 110.616 301.153 111.059C301.729 109.792 301.895 107.434 301.46 106.098C301.402 105.919 301.322 105.754 301.233 105.589C299.296 104.301 291.418 102.273 289.231 102.543ZM266.91 86.7775L266.073 86.9498C264.977 89.0741 265.883 94.5975 265.679 97.1827L273.531 97.0805L274.13 97.0529C275.013 95.326 274.4 89.0547 274.326 86.8625C271.861 86.7995 269.375 86.7156 266.91 86.7775ZM261.326 87.3047L253.799 88.0538C253.808 90.4653 253.317 96.0202 254.168 98.1047L256.19 97.9332C258.331 97.7515 260.512 97.3936 262.657 97.3974L262.632 97.1283C262.414 94.615 263.229 89.338 262.2 87.3025C261.908 87.2884 261.615 87.2527 261.326 87.3047ZM277.648 73.1376C277.814 76.6278 277.822 80.2021 277.683 83.6931C280.048 83.8096 283.356 84.7896 285.609 84.3859L285.76 84.1852C286.817 82.5202 286.529 77.3786 286.107 75.4345C286.024 75.0498 285.864 74.6574 285.634 74.3369C283.069 73.894 280.104 73.8635 277.648 73.1376ZM277.644 86.9093Q277.757 92.1339 277.686 97.3593C279.391 97.5578 284.293 98.5065 285.737 98.1015C286.678 97.0853 286.418 93.3334 286.361 91.9299C286.308 90.6239 286.353 89.2528 285.669 88.0942C283.093 87.6726 280.115 87.6277 277.644 86.9093ZM261.919 73.4242C259.192 73.619 256.491 74.0487 253.788 74.4437C253.964 77.5489 253.293 81.6548 254.1 84.6097C256.907 84.1758 259.74 83.6373 262.57 83.3979C262.516 81.6854 262.873 74.4169 262.092 73.4374L261.919 73.4242ZM265.788 73.0616C265.929 76.4543 266.017 79.9016 265.931 83.296C268.782 83.2882 271.641 83.2362 274.488 83.3875C274.08 80.0881 274.162 76.3153 274.392 72.9947C271.587 73.033 268.574 73.3002 265.788 73.0616ZM249.74 75.406C247.445 75.9323 245.139 76.4304 242.853 76.9936C242.842 78.793 242.433 85.912 243.225 87.1069L243.396 87.1425C245.824 86.4381 248.213 85.7812 250.707 85.3404C250.705 83.5286 251.02 76.2456 250.194 75.3434L249.74 75.406ZM289.506 75.2338C289.687 78.4564 290.066 82.4421 289.205 85.5883C291.237 85.6788 294.983 87.1401 296.642 86.8067C297.782 85.3539 297.414 80.3546 297.183 78.5242C297.122 78.0411 296.955 77.5634 296.738 77.1288C294.851 76.1355 291.625 75.2447 289.506 75.2338ZM250.305 88.8289C247.827 89.4953 245.351 90.1545 242.908 90.9413C242.886 92.9969 242.38 98.9177 243.274 100.543L243.859 100.63C246.107 99.9616 248.421 99.1187 250.723 98.6893C250.791 96.7589 251.194 90.1639 250.305 88.8289ZM289.319 89.1449C290.174 90.9098 289.947 96.3256 289.253 98.1993C289.183 98.3889 289.146 98.44 289.045 98.6315C291.535 99.0439 293.908 99.9968 296.399 100.331C297.499 99.2011 297.446 96.8222 297.423 95.2614C297.402 93.8595 297.441 92.1922 296.765 90.9327C295.067 89.9291 291.29 88.9174 289.319 89.1449ZM279.834 110.249C279.139 112.501 280.238 114.783 280.735 116.999C281.765 116.853 283.082 116.82 284.034 116.421C284.515 116.282 284.875 116.301 285.139 115.852C285.527 115.195 285.518 114.545 285.316 113.83C284.961 112.57 283.851 111.241 282.699 110.63C281.834 110.172 280.787 110.22 279.834 110.249ZM304.798 112.79C305.265 114.466 305.306 118.218 304.615 119.818C305.99 119.677 307.758 119.703 309.013 119.113L309.827 118.814C310.215 117.945 310.318 117.473 309.97 116.559C309.43 115.14 308.083 113.453 306.63 112.897C306.024 112.665 305.429 112.717 304.798 112.79ZM272.744 111.298C270.345 113.245 270.508 115.146 269.984 117.965L273.16 117.804C273.889 117.669 274.384 117.683 274.872 117.038C275.574 116.109 275.766 114.61 275.499 113.504C275.284 112.61 274.905 112.039 274.16 111.5C273.681 111.396 273.236 111.297 272.744 111.298ZM297.453 114.103C296.12 114.886 295.282 116.022 294.903 117.539C294.739 118.194 294.725 119.009 295.039 119.622C295.373 120.275 295.891 120.371 296.517 120.61C297.159 120.63 298.418 120.792 298.925 120.356C299.727 119.665 300.282 118.204 300.25 117.159C300.22 116.163 299.854 115.243 299.327 114.413C298.602 113.986 298.27 114.068 297.453 114.103Z"/>
</svg>
